<?xml version="1.0" encoding="UTF-8"?> <svg xmlns="http://www.w3.org/2000/svg" xmlns:xlink="http://www.w3.org/1999/xlink" width="303px" height="642px" viewBox="0 0 303 642" version="1.1"><!-- Generator: sketchtool 63.1 (101010) - https://sketch.com --><title>FBED5708-CF6C-4853-AE1E-D69D4489EFF6</title><desc>Created with sketchtool.</desc><defs><linearGradient x1="34.498794%" y1="-11.3953894%" x2="66.4605519%" y2="109.895471%" id="linearGradient-1"><stop stop-color="#3A9CF0" offset="0%"></stop><stop stop-color="#2F5596" offset="100%"></stop></linearGradient></defs><g id="Base-Pages" stroke="none" stroke-width="1" fill="none" fill-rule="evenodd"><g id="Contact-" transform="translate(0.000000, -473.000000)" fill="url(#linearGradient-1)"><g id="Group-4" transform="translate(-337.000000, 473.000000)"><g id="c-blue-shape-left"><path d="M59.9694253,554.818733 C91.5601504,581.831407 131.514006,599.956747 168.483305,613.264405 C209.453914,628.011959 251.479452,641.263855 295.535036,643.887468 C369.445392,648.289189 449.196134,608.550372 492.199807,537.961145 C516.401694,498.23365 519.355111,461.124413 522.419129,417.193761 C525.987229,366.032218 544.692813,314.692035 575.476463,272.843336 C604.014636,234.047074 646.253351,203.015393 638.825981,149.715257 C627.591396,69.0885257 547.914277,17.1773468 478.727733,3.32137699 C439.577017,-4.51854556 395.98587,1.97778749 361.042376,28.7688405 C344.864855,41.1724255 330.041582,55.6722964 313.562341,67.5754608 C265.535939,102.265475 211.750072,92.1560779 163.578478,120.778892 C129.071347,141.282273 100.398095,173.715342 78.3228755,208.52472 C29.661526,285.257075 -20.973855,397.661157 10.3706307,485.206576 C20.4972944,513.489131 38.2583215,536.252974 59.9694253,554.818733" id="Fill-1"></path></g></g></g></g></svg> 